<?xml version="1.0" encoding="iso-8859-1"?>
<!-- Generator: Adobe Illustrator 19.0.0, SVG Export Plug-In . SVG Version: 6.00 Build 0)  -->
<svg version="1.1" id="Capa_1" xmlns="http://www.w3.org/2000/svg" xmlns:xlink="http://www.w3.org/1999/xlink" x="0px" y="0px"
	 viewBox="0 0 512.002 512.002" style="enable-background:new 0 0 512.002 512.002;" xml:space="preserve">
<polygon style="fill:#E18F4E;" points="383.501,352.5 368.501,367.5 353.501,352.5 353.501,307.5 383.501,307.5 "/>
<rect x="353.5" y="352.5" style="fill:#FFA754;" width="30" height="30"/>
<polygon style="fill:#E18F4E;" points="413.501,352.5 428.501,367.5 443.501,352.5 443.501,307.5 413.501,307.5 "/>
<rect x="413.5" y="352.5" style="fill:#FFA754;" width="30" height="137"/>
<polygon style="fill:#E18F4E;" points="293.501,352.5 308.501,367.5 323.501,352.5 323.501,307.5 293.501,307.5 "/>
<g>
	<rect x="293.5" y="352.5" style="fill:#FFA754;" width="30" height="137"/>
	<path style="fill:#FFA754;" d="M368.501,7.5c-8.284,0-15,6.716-15,15v75h30v-75C383.501,14.216,376.785,7.5,368.501,7.5z"/>
</g>
<polygon style="fill:#FFE2A8;" points="458.501,307.5 368.501,307.5 428.501,67.5 458.501,67.5 "/>
<rect x="278.5" y="67.5" style="fill:#FFF0D3;" width="150" height="240"/>
<polygon style="fill:#C27749;" points="443.501,292.5 428.501,307.5 443.501,322.5 473.501,322.5 473.501,292.5 "/>
<rect x="263.5" y="292.5" style="fill:#E18F4E;" width="180" height="30"/>
<g>
	
		<line style="fill:none;stroke:#E18F4E;stroke-width:15;stroke-linecap:round;stroke-linejoin:round;stroke-miterlimit:10;" x1="68.5" y1="97.5" x2="68.5" y2="117.5"/>
	
		<polyline style="fill:none;stroke:#E18F4E;stroke-width:15;stroke-linecap:round;stroke-linejoin:round;stroke-miterlimit:10;" points="
		54.359,103.358 68.501,117.5 82.643,103.358 	"/>
</g>
<path style="fill:#FF4128;" d="M308.501,97.5v105h30v15c0,8.284,6.716,15,15,15s15-6.716,15-15v-15h45v-90l-15-15H308.501z"/>
<path style="fill:#CF301B;" d="M398.501,97.5v150c0,8.284,6.716,15,15,15s15-6.716,15-15v-150H398.501z"/>
<circle style="fill:#40211D;" cx="173.5" cy="30" r="22.5"/>
<path style="fill:#60312C;" d="M173.501,52.5v90c24.853,0,45-20.147,45-45S198.354,52.5,173.501,52.5z"/>
<path style="fill:#85453D;" d="M188.501,97.5c0-24.853-6.716-45-15-45c-24.853,0-45,20.147-45,45s20.147,45,45,45
	C181.785,142.5,188.501,122.353,188.501,97.5z"/>
<path style="fill:#60312C;" d="M198.501,172.5h-10l-20,60l50-30v-10C218.501,181.454,209.547,172.5,198.501,172.5z"/>
<path style="fill:#85453D;" d="M148.501,172.5c-11.046,0-20,8.954-20,20v10l60,30v-60H148.501z"/>
<polygon style="fill:#FFFFFF;" points="188.501,292.5 128.501,262.5 128.501,202.5 158.501,202.5 "/>
<polygon style="fill:#FFF0D3;" points="158.501,292.5 218.501,262.5 218.501,202.5 188.501,202.5 "/>
<path style="fill:#2DADE3;" d="M218.501,262.5c-5.467,0-10.586-1.469-15-4.023l-45,58.011l45,58.011h30v-30l-15-21.168l15-21.168
	C233.501,286.954,227.83,273.075,218.501,262.5z"/>
<rect x="188.5" y="302.17" style="fill:#1990C2;" width="45" height="42.34"/>
<path style="fill:#49C9FF;" d="M188.501,232.5v-30h-30v30c0,16.57-13.43,30-30,30c-9.329,10.575-15,24.454-15,39.665l15,21.168
	l-15,21.168v30h90V258.477C194.536,253.29,188.501,243.604,188.501,232.5z"/>
<rect x="113.5" y="302.17" style="fill:#2DADE3;" width="30" height="42.34"/>
<path d="M473.501,330c4.143,0,7.5-3.358,7.5-7.5v-30c0-4.142-3.357-7.5-7.5-7.5h-7.5V67.5c0-4.142-3.357-7.5-7.5-7.5h-67.5V22.5
	c0-12.407-10.094-22.5-22.5-22.5s-22.5,10.093-22.5,22.5V60h-67.5c-4.143,0-7.5,3.358-7.5,7.5v195c0,4.142,3.357,7.5,7.5,7.5
	s7.5-3.358,7.5-7.5V75h165v210h-187.5c-4.143,0-7.5,3.358-7.5,7.5v30c0,4.142,3.357,7.5,7.5,7.5h22.5v152h-22.5
	c-4.143,0-7.5,3.358-7.5,7.5s3.357,7.5,7.5,7.5h37.5v7.5c0,4.142,3.357,7.5,7.5,7.5s7.5-3.358,7.5-7.5V497h105v7.5
	c0,4.142,3.357,7.5,7.5,7.5s7.5-3.358,7.5-7.5V497h37.5c4.143,0,7.5-3.358,7.5-7.5s-3.357-7.5-7.5-7.5h-22.5V330H473.501z
	 M361.001,22.5c0-4.136,3.364-7.5,7.5-7.5s7.5,3.364,7.5,7.5V60h-15V22.5z M271.001,300h195v15h-195V300z M346.001,330v45h-15v-45
	H346.001z M376.001,330v45h-15v-45H376.001z M331.001,390h75v92h-75V390z M406.001,375h-15v-45h15V375z M301.001,330h15v152h-15V330
	z M436.001,482h-15V330h15V482z"/>
<path d="M428.501,135c4.143,0,7.5-3.358,7.5-7.5v-30c0-4.142-3.357-7.5-7.5-7.5h-120c-4.143,0-7.5,3.358-7.5,7.5v105
	c0,4.142,3.357,7.5,7.5,7.5h22.5v7.5c0,12.407,10.094,22.5,22.5,22.5s22.5-10.093,22.5-22.5V210h15v37.5
	c0,12.407,10.094,22.5,22.5,22.5s22.5-10.093,22.5-22.5v-90c0-4.142-3.357-7.5-7.5-7.5s-7.5,3.358-7.5,7.5v90
	c0,4.136-3.364,7.5-7.5,7.5s-7.5-3.364-7.5-7.5v-45c0-4.142-3.357-7.5-7.5-7.5h-30c-4.143,0-7.5,3.358-7.5,7.5v15
	c0,4.136-3.364,7.5-7.5,7.5s-7.5-3.364-7.5-7.5v-15c0-4.142-3.357-7.5-7.5-7.5h-22.5v-90h105v22.5
	C421.001,131.642,424.358,135,428.501,135z"/>
<path d="M173.501,150c28.948,0,52.5-23.551,52.5-52.5c0-20.965-12.356-39.091-30.165-47.499c4.762-5.312,7.665-12.323,7.665-20.001
	c0-16.542-13.458-30-30-30s-30,13.458-30,30c0,7.678,2.903,14.689,7.665,20.001c-17.808,8.408-30.165,26.534-30.165,47.499
	C121.001,126.449,144.553,150,173.501,150z M158.501,30c0-8.271,6.729-15,15-15s15,6.729,15,15s-6.729,15-15,15
	S158.501,38.271,158.501,30z M173.501,60c20.678,0,37.5,16.822,37.5,37.5s-16.822,37.5-37.5,37.5s-37.5-16.822-37.5-37.5
	S152.823,60,173.501,60z"/>
<path d="M235.873,497.385l-24.872-8.291V382h22.5c4.143,0,7.5-3.358,7.5-7.5v-72.335c0-15.472-5.307-30.417-15-42.406V192.5
	c0-15.164-12.337-27.5-27.5-27.5h-50c-12.563,0-23.178,8.472-26.452,20H76.001v-64.394l11.945-11.945
	c2.93-2.929,2.93-7.677,0.001-10.606c-2.93-2.929-7.679-2.929-10.606,0l-1.34,1.34V97.5c0-4.142-3.357-7.5-7.5-7.5
	c-4.143,0-7.5,3.358-7.5,7.5v1.895l-1.34-1.34c-2.928-2.93-7.677-2.929-10.606,0s-2.929,7.678,0.001,10.606l11.945,11.945V185h-7.5
	c-12.406,0-22.5,10.093-22.5,22.5s10.094,22.5,22.5,22.5h7.5v7.5c0,4.142,3.357,7.5,7.5,7.5c4.143,0,7.5-3.358,7.5-7.5V200h45
	v59.759c-9.693,11.989-15,26.935-15,42.406V374.5c0,4.142,3.357,7.5,7.5,7.5h22.5v107.094l-24.872,8.291
	c-3.93,1.31-6.053,5.558-4.743,9.487c1.048,3.143,3.974,5.13,7.114,5.13c0.786,0,1.586-0.125,2.373-0.387l30-10
	c3.062-1.021,5.128-3.887,5.128-7.115V382h45v112.5c0,3.228,2.065,6.094,5.128,7.115l30,10c0.787,0.262,1.587,0.387,2.373,0.387
	c3.141,0,6.066-1.988,7.114-5.13C241.926,502.942,239.803,498.695,235.873,497.385z M61.001,215h-7.5c-4.136,0-7.5-3.364-7.5-7.5
	s3.364-7.5,7.5-7.5h7.5V215z M196.001,232.5V210h15v43.71C202.272,250.614,196.001,242.277,196.001,232.5z M211.001,192.5v2.5h-15
	v-15h2.5C205.394,180,211.001,185.607,211.001,192.5z M181.001,195h-15v-15h15V195z M148.501,180h2.5v15h-15v-2.5
	C136.001,185.607,141.608,180,148.501,180z M136.001,210h15v22.5c0,9.777-6.271,18.114-15,21.21V210z M121.001,352h22.5
	c4.143,0,7.5-3.358,7.5-7.5v-42.335c0-4.142-3.357-7.5-7.5-7.5s-7.5,3.358-7.5,7.5V337h-15v-34.835
	c0-11.764,3.955-23.132,11.178-32.348c18.957-1.854,33.822-17.881,33.822-37.317V210h15v22.5c0,19.437,14.864,35.463,33.822,37.317
	c7.223,9.216,11.178,20.584,11.178,32.348V337h-15v-34.835c0-4.142-3.357-7.5-7.5-7.5s-7.5,3.358-7.5,7.5V344.5
	c0,4.142,3.357,7.5,7.5,7.5h22.5v15h-105C121.001,367,121.001,352,121.001,352z"/>
<g>
</g>
<g>
</g>
<g>
</g>
<g>
</g>
<g>
</g>
<g>
</g>
<g>
</g>
<g>
</g>
<g>
</g>
<g>
</g>
<g>
</g>
<g>
</g>
<g>
</g>
<g>
</g>
<g>
</g>
</svg>
